<svg width="600" height="600" viewBox="0 0 600 600" fill="none" xmlns="http://www.w3.org/2000/svg">
<path d="M0 300C0 134.315 134.315 0 300 0C465.687 0 600 134.315 600 300C600 465.687 465.687 600 300 600C134.315 600 0 465.687 0 300Z" fill="#6C6C9D"/>
<path d="M300 366.667C373.638 366.667 433.333 306.971 433.333 233.333C433.333 159.695 373.638 100 300 100C226.362 100 166.667 159.695 166.667 233.333C166.667 306.971 226.362 366.667 300 366.667Z" fill="#C2C2D6"/>
<path fill-rule="evenodd" clip-rule="evenodd" d="M507.363 508.207C509.303 511.42 508.71 515.533 505.983 518.107C452.247 568.873 379.76 600 300 600C220.243 600 147.755 568.877 94.0191 518.11C91.2924 515.533 90.7004 511.423 92.6394 508.21C131.446 443.933 209.738 400 300.003 400C390.263 400 468.557 443.93 507.363 508.207Z" fill="#C2C2D6"/>
</svg>
